<?xml version="1.0"?>
<svg width="96" height="24" xmlns="http://www.w3.org/2000/svg" xmlns:svg="http://www.w3.org/2000/svg">
 <defs>
  <clipPath id="clip0_3190_16194">
   <rect fill="#03053D" height="24" id="svg_1" width="24"/>
  </clipPath>
 </defs>
 <g class="layer">
  <title>Layer 1</title>
  <g clip-path="url(#clip0_3190_16194)" id="svg_2">
   <path d="m13,4.05c4.5,0.5 8,4.32 8,8.95l0,9l-18,0l0,-9c0,-4.63 3.5,-8.45 8,-8.95l0,-3.05l2,0l0,3.05zm-1,13.95c1.33,0 2.6,-0.53 3.54,-1.46c0.93,-0.94 1.46,-2.21 1.46,-3.54c0,-1.33 -0.53,-2.6 -1.46,-3.54c-0.94,-0.93 -2.21,-1.46 -3.54,-1.46c-1.33,0 -2.6,0.53 -3.54,1.46c-0.93,0.94 -1.46,2.21 -1.46,3.54c0,1.33 0.53,2.6 1.46,3.54c0.94,0.93 2.21,1.46 3.54,1.46zm0,-2c-0.8,0 -1.56,-0.32 -2.12,-0.88c-0.56,-0.56 -0.88,-1.32 -0.88,-2.12c0,-0.8 0.32,-1.56 0.88,-2.12c0.56,-0.56 1.32,-0.88 2.12,-0.88c0.8,0 1.56,0.32 2.12,0.88c0.56,0.56 0.88,1.32 0.88,2.12c0,0.8 -0.32,1.56 -0.88,2.12c-0.56,0.56 -1.32,0.88 -2.12,0.88zm0,-2c0.27,0 0.52,-0.11 0.71,-0.29c0.18,-0.19 0.29,-0.44 0.29,-0.71c0,-0.27 -0.11,-0.52 -0.29,-0.71c-0.19,-0.18 -0.44,-0.29 -0.71,-0.29c-0.27,0 -0.52,0.11 -0.71,0.29c-0.18,0.19 -0.29,0.44 -0.29,0.71c0,0.27 0.11,0.52 0.29,0.71c0.19,0.18 0.44,0.29 0.71,0.29z" fill="#fff" id="svg_3"/>
  </g>
  <text fill="#ffffff" font-family="Serif" font-size="12" id="svg_4" stroke="#ffffff" stroke-width="0" text-anchor="middle" transform="matrix(1 0 0 1 0 0) matrix(0.999988 0.00411856 -0.00484849 0.849442 -0.121089 1.63454)" x="36.9" xml:space="preserve" y="9.57">MSU</text>
  <text fill="#ffffff" font-family="Serif" font-size="12" id="svg_5" stroke="#ffffff" stroke-width="0" text-anchor="middle" transform="matrix(1 0 0 0.929875 0 1.73366)" x="57.36" xml:space="preserve" y="20.5">VACANCIES</text>
 </g>
</svg>